<?xml version="1.0" encoding="utf-8"?>
<!-- Generator: Adobe Illustrator 17.1.0, SVG Export Plug-In . SVG Version: 6.00 Build 0)  -->
<!DOCTYPE svg PUBLIC "-//W3C//DTD SVG 1.1//EN" "http://www.w3.org/Graphics/SVG/1.1/DTD/svg11.dtd">
<svg version="1.1" id="Layer_1" xmlns="http://www.w3.org/2000/svg" xmlns:xlink="http://www.w3.org/1999/xlink" x="0px" y="0px"
	 viewBox="0 0 255 255" enable-background="new 0 0 255 255" xml:space="preserve">
<g>
	<path fill="#FFFFFF" d="M127.1,0.8c68.9,0.1,125,56.8,124.9,126.3c-0.1,69.5-56.3,126.2-125.1,126.1C58,253.1,1.9,196.4,2,126.9
		C2.1,57.4,58.2,0.7,127.1,0.8"/>
	<polygon fill-rule="evenodd" clip-rule="evenodd" fill="#EE254E" points="152.4,148.3 171.7,128.9 224.1,181.4 204.7,200.7 	"/>
	<g>
		<path fill-rule="evenodd" clip-rule="evenodd" fill="#EE254E" d="M150,211.9c-18.9-20.4-39-40.3-58.4-60.5
			c27.9-27.1,55.9-54.3,83.9-81.4c19.6,20.1,39.1,40.3,58.7,60.4C206.1,157.5,177.8,185.2,150,211.9z M170.2,115.8
			c-0.3,3.2-0.8,7.8-1.2,11.2c-0.2,1.3-0.5,3-0.2,3.7c0.7,1.6,2.6,2.6,3.9,4c9.3,9.6,18.4,18.9,27.5,28.3
			c5.6-5.5,11.3-10.9,16.9-16.4c-15.1-15.3-30-31.4-45.3-46.3C171.5,105,170.8,110.1,170.2,115.8z M129.6,129.4
			c3.2-0.6,6.5-1.3,9.7-1.8c-0.9,3.2-1.4,6.4-2.1,9.5c2.9-3.6,5.4-7.2,8.2-10.8c3.3-0.7,6.5-1.1,9.9-1.9c-1.6-1.6-3.2-3.3-4.7-4.9
			c2.5-3.5,5.5-7.2,7.9-10.7c-3.6,2.5-7.4,5.3-10.9,7.6c-1.6-1.4-3-3.6-4.8-4.6c-0.9,3.3-1.1,6.3-2.3,9.7
			C136.8,124.4,132.7,126.8,129.6,129.4z M152,146.8c-4.9,0.4-10.2,0.8-15.4,1.2c-4.4,0.4-8.7,0.4-13,0.8c-0.5,0.1-1.6,0.1-1.6,0.5
			c14.9,15.4,29.9,30.8,44.8,46.2c5.6-5.4,11.1-10.8,16.7-16.2C173,168.5,162.5,157.6,152,146.8z"/>
		<path fill-rule="evenodd" clip-rule="evenodd" fill="#FFFFFF" d="M91.6,151.4c19.4,20.2,39.5,40.2,58.4,60.5
			C130.6,191.7,110.5,171.7,91.6,151.4z"/>
		<path fill-rule="evenodd" clip-rule="evenodd" fill="#FFFFFF" d="M140.3,121.6c1.2-3.4,1.5-6.4,2.3-9.7c1.8,1,3.2,3.2,4.8,4.6
			c3.5-2.3,7.3-5.1,10.9-7.6c-2.4,3.5-5.4,7.2-7.9,10.7c1.6,1.6,3.1,3.2,4.7,4.9c-3.4,0.8-6.6,1.3-9.9,1.9
			c-2.8,3.6-5.3,7.1-8.2,10.8c0.7-3.2,1.3-6.3,2.1-9.5c-3.2,0.4-6.4,1.1-9.7,1.8C132.7,126.8,136.8,124.4,140.3,121.6z"/>
	</g>
	<polygon fill="#FFFFFF" points="134.3,161.7 149.8,146.2 202.2,198.7 186.7,214.2 	"/>
	<polygon fill="#FFFFFF" points="167.8,124.8 181.7,110.9 234.1,163.4 220.2,177.3 	"/>
	
		<linearGradient id="SVGID_1_" gradientUnits="userSpaceOnUse" x1="98.0679" y1="243.3616" x2="98.0679" y2="10.0129" gradientTransform="matrix(1 8.302777e-04 -8.302777e-04 1 0.2484 0.2076)">
		<stop  offset="0" style="stop-color:#0BABDF"/>
		<stop  offset="0.2831" style="stop-color:#12AADE"/>
		<stop  offset="0.5048" style="stop-color:#20A5DB"/>
		<stop  offset="0.7057" style="stop-color:#2E9CD5"/>
		<stop  offset="0.8931" style="stop-color:#3C8FCC"/>
		<stop  offset="1" style="stop-color:#4486C6"/>
	</linearGradient>
	<path fill="url(#SVGID_1_)" d="M127.1,10.3C63.4,10.3,11.5,62.6,11.4,126.9c-0.1,64.3,51.8,116.7,115.5,116.8
		c15.8,0,30.8-3.2,44.5-9l0-58.6L51.1,176l0-14.7l134-135.1C168,16.1,148.2,10.3,127.1,10.3"/>
	
		<linearGradient id="SVGID_2_" gradientUnits="userSpaceOnUse" x1="221.4987" y1="147.3902" x2="221.4987" y2="36.9119" gradientTransform="matrix(1 8.302777e-04 -8.302777e-04 1 0.2484 0.2076)">
		<stop  offset="0" style="stop-color:#0BABDF"/>
		<stop  offset="0.2831" style="stop-color:#12AADE"/>
		<stop  offset="0.5048" style="stop-color:#20A5DB"/>
		<stop  offset="0.7057" style="stop-color:#2E9CD5"/>
		<stop  offset="0.8931" style="stop-color:#3C8FCC"/>
		<stop  offset="1" style="stop-color:#4486C6"/>
	</linearGradient>
	<path fill="url(#SVGID_2_)" d="M200.8,37.3l-0.1,110.5l40.1,0c1.2-6.7,1.9-13.7,1.9-20.7C242.6,91.1,226.3,58.7,200.8,37.3"/>
	
		<linearGradient id="SVGID_3_" gradientUnits="userSpaceOnUse" x1="133.3306" y1="150.6356" x2="133.3306" y2="69.0464" gradientTransform="matrix(1 8.302777e-04 -8.302777e-04 1 0.2484 0.2076)">
		<stop  offset="0" style="stop-color:#0BABDF"/>
		<stop  offset="0.2831" style="stop-color:#12AADE"/>
		<stop  offset="0.5048" style="stop-color:#20A5DB"/>
		<stop  offset="0.7057" style="stop-color:#2E9CD5"/>
		<stop  offset="0.8931" style="stop-color:#3C8FCC"/>
		<stop  offset="1" style="stop-color:#4486C6"/>
	</linearGradient>
	<polygon fill="url(#SVGID_3_)" points="175.4,69.4 91.6,150.9 175.3,151 	"/>
	
		<linearGradient id="SVGID_4_" gradientUnits="userSpaceOnUse" x1="216.1206" y1="216.4348" x2="216.1206" y2="175.7392" gradientTransform="matrix(1 8.302777e-04 -8.302777e-04 1 0.2484 0.2076)">
		<stop  offset="0" style="stop-color:#0BABDF"/>
		<stop  offset="0.2831" style="stop-color:#12AADE"/>
		<stop  offset="0.5048" style="stop-color:#20A5DB"/>
		<stop  offset="0.7057" style="stop-color:#2E9CD5"/>
		<stop  offset="0.8931" style="stop-color:#3C8FCC"/>
		<stop  offset="1" style="stop-color:#4486C6"/>
	</linearGradient>
	<path fill="url(#SVGID_4_)" d="M200.7,176.1l0,40.7c13.1-11,23.9-24.9,31.2-40.7L200.7,176.1z"/>
	<path fill-rule="evenodd" clip-rule="evenodd" fill="#FFFFFF" d="M144,126c-0.8-3.8-2.5-7.4-3.7-11.2c3.1,1.6,6.5,4.4,9.7,6.5
		c3.2-2,6.2-4.7,9.4-6.9c-0.8,3.7-2.3,7.5-3.2,11.2c3.3,2.3,6.5,4.5,9.8,6.8c-3.9,0.3-7.9,0.2-11.9,0.4c-1.2,3.8-2.2,7.5-3.5,11.3
		c-1.3-3.7-2.7-7.3-3.8-11c-4-0.1-7.9,0.1-11.8,0.2C137.4,130.7,141.2,128.5,144,126z"/>
	<g>
		<path fill="#FFFFFF" d="M69.8,133c-0.7,2-2.7,5.4-6.2,8.9c-8,8-19.2,9-28.5-0.4c-8.9-8.9-8.9-21-0.1-29.9c3.6-3.6,6.6-5,8-5.5
			l2.1,3.9c-2.1,0.7-4.6,2.2-6.9,4.6c-6.7,6.7-6.9,15.4,0.6,22.9c7,7,15.5,7.5,22.4,0.5c2.2-2.2,4.1-5,4.8-7.2L69.8,133z"/>
		<path fill="#FFFFFF" d="M85.2,90.4c9.8,9.8,9,21,1.8,28.3c-7.5,7.5-18.7,7-27.3-1.7c-9.1-9.1-9.3-20.6-1.7-28.2
			C65.7,81,76.7,82,85.2,90.4z M63.5,113c6.1,6.1,14.9,8.3,20.7,2.5c5.8-5.8,3.8-14.5-2.7-21c-5.7-5.7-14.6-8.6-20.7-2.5
			C54.6,98.1,57.2,106.7,63.5,113z"/>
		<path fill="#FFFFFF" d="M76.4,72c1.9-2.6,4.3-5.5,7.2-8.4c5.3-5.3,10.3-7.8,15.1-8c4.9-0.2,9.6,1.6,14.3,6.2c4.7,4.7,7,9.9,7,15.2
			c0,5.3-3,11.2-8.5,16.7c-2.6,2.6-5,4.7-7,6.3L76.4,72z M105.3,93.6c1.1-0.8,2.5-2.1,3.9-3.5c7.9-7.9,7.8-16.5,0.1-24.3
			c-6.7-6.8-14.8-7.3-22.6,0.5c-1.9,1.9-3.2,3.5-3.9,4.7L105.3,93.6z"/>
		<path fill="#FFFFFF" d="M134.1,43.9L123,55l10.3,10.3l12.4-12.3l3.1,3.1l-16.1,16l-28.5-28.6l15.4-15.4l3.1,3.1L111,42.9l9,9
			l11.1-11.1L134.1,43.9z"/>
	</g>
	<g>
		<path fill="#FFFFFF" d="M96,185.1c2.9-0.5,6.8-0.9,11.6-0.9c6,0,10.4,1.4,13.2,3.9c2.6,2.2,4.1,5.6,4.1,9.8c0,4.3-1.3,7.6-3.6,10
			c-3.2,3.4-8.4,5.2-14.4,5.1c-1.8,0-3.5-0.1-4.9-0.4l0,18.8l-6.1,0L96,185.1z M102.1,207.8c1.3,0.3,3,0.5,5,0.5
			c7.3,0,11.8-3.5,11.8-10c0-6.2-4.4-9.2-11.1-9.2c-2.6,0-4.7,0.2-5.7,0.5L102.1,207.8z"/>
		<path fill="#FFFFFF" d="M133.1,185.2c3.1-0.6,7.5-1,11.6-1c6.5,0,10.7,1.2,13.6,3.8c2.4,2.1,3.7,5.3,3.7,8.9
			c0,6.2-3.9,10.3-8.9,12v0.2c3.6,1.3,5.8,4.6,6.9,9.5c1.5,6.6,2.6,11.1,3.6,12.9l-6.3,0c-0.8-1.3-1.8-5.4-3.1-11.2
			c-1.4-6.5-3.9-8.9-9.4-9.1l-5.7,0l0,20.4l-6.1,0L133.1,185.2z M139.2,206.6l6.2,0c6.5,0,10.6-3.5,10.6-8.9c0-6.1-4.4-8.7-10.8-8.8
			c-2.9,0-5,0.3-6,0.6L139.2,206.6z"/>
	</g>
</g>
</svg>
